# xmcd CD database file
#
# Track frame offsets:
#	150
#	20145
#	42658
#	58745
#	80008
#	98675
#	121915
#	144170
#	168683
#	189545
#
# Disc length: 2798 seconds
#
# Revision: 0
# Processed by: cddbd v1.5PL3 Copyright (c) Steve Scherf et al.
# Submitted via: CDex 1.51
#
DISCID=8b0aec0a
DTITLE=永田真代 - Pathos
DYEAR=1990
DGENRE=JPop
TTITLE0=BAD BOY
TTITLE1=まだ泣きたくない
TTITLE2=NOBODY KNOWS YOUR MIND
TTITLE3=TWILIGHT IN THE MEMORIES
TTITLE4=離れていても
TTITLE5=Swinger
TTITLE6=LOVING
TTITLE7=目隠しの恋
TTITLE8=Through the night
TTITLE9=Tender love
EXTD=YEAR: 1990
EXTT0=
EXTT1=
EXTT2=
EXTT3=
EXTT4=
EXTT5=
EXTT6=
EXTT7=
EXTT8=
EXTT9=
PLAYORDER=
